<svg xmlns="http://www.w3.org/2000/svg" viewBox="0 0 200 80">
  <path d="M50.5,15c-15.2,0-27.5,12.3-27.5,27.5S35.3,70,50.5,70c9.8,0,18.4-5.1,23.4-12.9" fill="none" stroke="#ed1c24" stroke-width="4" stroke-linecap="round"/>
  <path d="M43,30c0,0,5.2-8.7,15-8c9.8,0.7,12.1,10.5,10.3,16.3c-1.8,5.8-7.9,9.7-7.9,9.7" fill="none" stroke="#ed1c24" stroke-width="4" stroke-linecap="round"/>
  <path d="M60,50.7c0,0-5.3,6.3-13.5,1.8c-8.2-4.5-6.4-14.3-2.7-18.3c3.7-4,10.8-4.3,10.8-4.3" fill="none" stroke="#ed1c24" stroke-width="4" stroke-linecap="round"/>
  <text x="85" y="45" font-family="Arial, sans-serif" font-size="26" font-weight="bold" fill="#ed1c24">AL THAI</text>
</svg>
